<?xml version="1.0" standalone="no"?>
<!DOCTYPE svg PUBLIC "-//W3C//DTD SVG 20010904//EN"
 "http://www.w3.org/TR/2001/REC-SVG-20010904/DTD/svg10.dtd">
<svg version="1.0" xmlns="http://www.w3.org/2000/svg"
 width="180.000000pt" height="180.000000pt" viewBox="0 0 180.000000 180.000000"
 preserveAspectRatio="xMidYMid meet">
<metadata>
Created by potrace 1.11, written by Peter Selinger 2001-2013
</metadata>
<g transform="translate(0.000000,180.000000) scale(0.100000,-0.100000)"
fill="#000000" stroke="none">
<path d="M0 900 l0 -900 900 0 900 0 0 900 0 900 -900 0 -900 0 0 -900z m788
440 l52 -12 0 -65 c0 -58 -2 -64 -17 -58 -68 26 -195 47 -260 43 -105 -7 -156
-41 -203 -132 -34 -66 -35 -73 -35 -175 0 -86 4 -114 21 -151 51 -109 115
-151 244 -158 72 -4 97 0 163 22 42 14 80 26 83 26 3 0 4 -28 2 -62 l-3 -62
-60 -19 c-84 -27 -296 -30 -377 -4 -147 45 -242 181 -255 362 -16 237 94 405
297 452 64 15 268 11 348 -7z m752 -392 c84 -216 155 -399 157 -406 4 -10 -14
-12 -83 -10 l-88 3 -41 105 -41 105 -166 3 -167 2 -42 -110 -43 -110 -62 0
-62 0 104 268 c57 147 128 329 157 404 l52 138 86 0 86 0 153 -392z"/>
<path d="M1216 1023 c-31 -82 -56 -154 -56 -160 0 -10 31 -13 120 -13 66 0
120 2 120 4 0 8 -121 316 -124 316 -2 0 -28 -66 -60 -147z"/>
</g>
</svg>
